<?xml version="1.0" standalone="no"?>
<!DOCTYPE svg PUBLIC "-//W3C//DTD SVG 20010904//EN"
 "http://www.w3.org/TR/2001/REC-SVG-20010904/DTD/svg10.dtd">
<svg version="1.0" xmlns="http://www.w3.org/2000/svg"
 width="1375.000000pt" height="1375.000000pt" viewBox="0 0 1375.000000 1375.000000"
 preserveAspectRatio="xMidYMid meet">
<metadata>
Created by potrace 1.11, written by Peter Selinger 2001-2013
</metadata>
<g transform="translate(0.000000,1375.000000) scale(0.100000,-0.100000)"
fill="#000000" stroke="none">
<path d="M3237 9014 c-1 -1 -45 -5 -97 -8 -53 -4 -105 -8 -115 -10 -11 -2 -42
-7 -70 -10 -141 -19 -290 -80 -346 -143 -31 -36 -108 -182 -153 -293 -15 -36
-38 -89 -52 -118 -13 -29 -24 -58 -24 -65 0 -7 -4 -17 -9 -23 -27 -28 -220
-585 -321 -924 -49 -164 -150 -545 -165 -620 -2 -9 -14 -67 -29 -130 -14 -63
-28 -131 -31 -150 -3 -19 -8 -42 -10 -50 -2 -8 -6 -28 -9 -45 -10 -59 -25
-161 -30 -200 -3 -22 -9 -65 -13 -95 -4 -30 -8 -143 -8 -250 0 -170 3 -206 22
-280 80 -301 278 -480 573 -518 109 -13 225 -7 310 19 253 76 515 289 767 624
93 125 281 411 347 530 23 41 98 165 100 165 2 0 3 -6 3 -12 0 -31 14 -229 18
-250 2 -13 7 -48 10 -78 11 -106 24 -187 35 -225 4 -16 11 -47 15 -67 21 -128
123 -355 208 -465 150 -194 327 -266 547 -223 54 11 165 43 205 60 11 4 43 16
70 26 55 19 123 59 143 83 46 57 54 90 41 167 -4 27 -10 67 -14 89 -3 22 -8
46 -11 54 -2 8 -7 30 -10 50 -3 20 -9 50 -14 66 -8 28 -36 157 -46 215 -2 14
-7 36 -9 50 -13 63 -15 77 -20 100 -2 14 -6 45 -10 70 -3 25 -8 56 -10 70 -2
14 -7 57 -11 95 -3 39 -8 81 -10 95 -24 182 -24 783 1 1095 2 33 7 94 10 135
6 73 11 129 20 200 3 19 7 67 11 105 3 39 8 79 10 90 7 35 18 178 18 225 -1
130 -45 195 -158 230 -59 19 -216 8 -305 -21 -163 -53 -240 -140 -434 -494
-101 -185 -119 -217 -168 -297 -27 -44 -49 -81 -49 -83 0 -4 -137 -228 -175
-285 -277 -424 -356 -539 -499 -730 -191 -256 -309 -380 -362 -380 -57 0 -68
88 -33 262 12 57 22 112 24 124 7 49 94 399 165 664 17 63 33 123 35 134 8 36
85 293 101 337 8 24 17 51 19 59 10 43 101 286 164 440 137 334 174 457 170
564 -2 66 -28 138 -61 173 -27 29 -94 60 -149 68 -41 6 -118 12 -122 9z"/>
<path d="M6265 8981 c-133 -33 -255 -195 -343 -457 -49 -145 -65 -275 -49
-389 23 -168 155 -256 335 -223 144 27 323 251 387 484 26 95 27 105 39 264 9
119 -30 237 -92 281 -59 42 -190 61 -277 40z"/>
<path d="M11618 8977 c-97 -32 -182 -125 -259 -279 -26 -54 -46 -98 -44 -98 2
0 -4 -19 -14 -42 -39 -94 -62 -201 -66 -310 -7 -188 55 -298 186 -331 118 -31
229 5 331 106 146 145 231 353 244 597 14 264 -51 358 -254 366 -52 2 -102 -1
-124 -9z"/>
<path d="M8898 7845 c-2 -2 -35 -6 -75 -9 -126 -12 -239 -60 -296 -127 -33
-38 -167 -321 -167 -352 0 -7 -4 -17 -9 -22 -4 -6 -21 -44 -36 -85 -15 -41
-33 -88 -41 -105 -7 -16 -19 -50 -28 -75 -32 -94 -195 -511 -241 -615 -7 -16
-30 -68 -50 -115 -21 -47 -52 -117 -70 -156 -18 -39 -36 -80 -39 -92 -15 -48
-30 -11 -41 103 -1 11 -9 85 -18 165 -26 228 -35 404 -42 800 -4 279 -9 354
-27 435 -30 140 -88 178 -263 178 -323 0 -526 -145 -599 -428 -44 -173 -53
-474 -21 -740 3 -22 7 -60 10 -85 13 -113 39 -275 60 -385 13 -66 26 -132 29
-147 11 -64 70 -282 103 -381 71 -216 143 -356 229 -444 84 -86 133 -106 245
-101 116 5 196 44 295 142 170 169 313 410 594 999 18 37 34 67 35 65 2 -2 6
-33 9 -69 7 -68 14 -114 21 -139 3 -8 7 -35 10 -59 3 -24 7 -47 9 -50 3 -4 7
-25 11 -48 29 -194 143 -541 232 -703 159 -288 353 -440 586 -459 214 -17 347
61 502 293 121 182 289 535 400 841 37 104 117 352 130 405 2 8 13 51 24 96
12 45 23 90 26 100 2 10 11 48 20 84 9 36 18 76 21 90 27 136 43 222 49 260 3
25 8 52 10 60 2 8 7 44 10 80 4 36 9 74 12 85 3 11 7 106 9 211 7 285 -23 397
-119 443 -132 64 -393 -38 -560 -219 -67 -72 -99 -130 -126 -230 -25 -91 -31
-174 -36 -550 -2 -168 -7 -334 -9 -370 -14 -172 -18 -217 -21 -245 -8 -64 -17
-128 -21 -148 -2 -12 -6 -39 -10 -61 -12 -82 -95 -376 -105 -376 -6 0 -16 30
-25 75 -2 11 -15 70 -28 130 -25 111 -65 314 -85 435 -6 36 -13 79 -16 95 -3
17 -10 64 -16 105 -5 41 -12 86 -14 100 -2 14 -6 45 -10 70 -3 25 -8 61 -11
80 -7 55 -13 99 -19 170 -3 36 -8 79 -10 95 -4 31 -11 180 -20 400 -7 163 -12
213 -32 298 -24 106 -90 177 -180 193 -30 6 -151 12 -155 9z"/>
<path d="M6100 7771 c-64 -14 -119 -51 -172 -115 -83 -100 -172 -260 -254
-451 -52 -123 -170 -493 -190 -595 -3 -14 -10 -43 -16 -65 -5 -22 -12 -51 -15
-65 -2 -14 -8 -41 -13 -60 -5 -19 -12 -55 -15 -80 -4 -24 -8 -47 -10 -50 -1
-3 -6 -32 -10 -65 -3 -32 -8 -62 -10 -65 -1 -3 -6 -43 -10 -90 -4 -47 -9 -98
-11 -115 -4 -41 -4 -313 0 -347 23 -169 57 -262 135 -368 86 -118 200 -181
317 -175 119 6 211 75 276 207 79 160 282 815 324 1048 3 14 9 41 14 60 10 39
39 187 45 229 2 14 6 37 9 51 7 31 16 92 22 150 2 25 6 56 9 69 9 48 20 228
20 336 -1 226 -39 351 -146 471 -50 57 -110 84 -198 89 -36 2 -82 0 -101 -4z"/>
<path d="M11448 7766 c-46 -12 -105 -51 -141 -91 -37 -41 -140 -202 -179 -278
-91 -182 -241 -604 -274 -774 -1 -7 -14 -61 -28 -120 -14 -60 -27 -121 -30
-138 -3 -16 -8 -46 -11 -65 -53 -306 -64 -588 -30 -775 44 -246 220 -449 398
-460 63 -3 144 16 190 47 44 28 102 107 139 186 45 98 220 633 243 742 2 8 13
51 24 96 12 45 23 90 25 100 3 10 15 69 29 129 14 61 28 126 31 145 3 19 12
71 20 115 9 44 18 103 21 130 4 28 8 61 10 75 18 123 25 234 25 375 0 146 -3
171 -25 256 -61 239 -234 360 -437 305z"/>
</g>
</svg>
